# xmcd
#
# Track frame offsets:
#	150
#	25758
#	43168
#	75583
#	98591
#	127457
#	159942
#	186954
#	210653
#	238443
#	268450
#	290832
#	308400
#
# Disc length: 4477 seconds
#
# Revision: 3
# Processed by: cddbd v1.5.2PL0 Copyright (c) Steve Scherf et al.
# Submitted via: audiograbber 1.83.01
#
DISCID=bf117b0d
DTITLE=Peter Gabriel - New Blood [Special Edition] [CD 2)
DYEAR=2011
DGENRE=
TTITLE0=The Rhythm Of The Heat [Instrumental]
TTITLE1=Downside Up [Instrumental]
TTITLE2=San Jacinto [Instrumental]
TTITLE3=Intruder [Instrumental]
TTITLE4=Wallflower [Instrumental]
TTITLE5=In Your Eyes [Instrumental]
TTITLE6=Mercy Street [Instrumental]
TTITLE7=Red Rain [Instrumental]
TTITLE8=Darkness [Instrumental]
TTITLE9=Don't Give Up [Instrumental]
TTITLE10=Digging In The Dirt [Instrumental]
TTITLE11=The Nest That Sailed The Sky [Instrumental]
TTITLE12=Blood Of Eden
EXTD=YEAR: 2011
EXTT0=
EXTT1=
EXTT2=
EXTT3=
EXTT4=
EXTT5=
EXTT6=
EXTT7=
EXTT8=
EXTT9=
EXTT10=
EXTT11=
EXTT12=
PLAYORDER=
